# File created by Blade
# Date/Time:  Wed Jan 21 19:08:52 2015
# Frame Rate: 120.000 fps
#------------------------------------------------------
:FULLY-SPECIFIED
:DEGREES
3679
root -4.003095 33.578083 -1.965807 6.821096 64.460101 -31.110650
RightUpLeg -126.264877 19.768876 -13.481573
RightLeg 86.297654 -0.000000 -0.000000
RightFoot 12.328713 0.455933 21.416532
RightToeBase 23.544427 -0.000000 -0.000000
LeftUpLeg -34.363202 5.819689 9.303875
LeftLeg 5.463292 -0.000000 -0.000000
LeftFoot -7.405044 -9.460616 4.735998
LeftToeBase -1.609164 -0.000000 0.000000
Spine -51.820353 -39.195613 47.308387
RightShoulder -35.240148 4.815726 -48.533560
RightArm -20.206805 -2.354223 44.578740
RightForeArm 1.690903 0.000000 4.074833
RightHand 14.859299 0.000000 -11.300007
RightHandThumb1 -24.326973 -0.000000 -32.862282
LeftShoulder -10.579787 0.039662 28.304781
LeftArm 20.744199 43.480549 -85.684298
LeftForeArm 26.317996 -0.000000 32.926882
LeftHand -12.070063 0.000000 -23.865245
LeftHandThumb1 -26.253704 0.000000 33.147579
Head -15.207766 -62.313988 25.347353
3680
root -3.999745 33.578212 -1.953341 6.626057 64.611725 -31.318311
RightUpLeg -126.271213 19.733112 -13.521146
RightLeg 86.325292 -0.000000 -0.000000
RightFoot 12.372076 0.539195 21.228055
RightToeBase 23.455735 -0.000000 -0.000000
LeftUpLeg -34.321381 5.769666 9.377968
LeftLeg 5.334306 -0.000000 -0.000000
LeftFoot -7.379733 -9.575390 4.708428
LeftToeBase -1.552486 -0.000000 0.000000
Spine -51.898493 -39.166524 47.339048
RightShoulder -35.283563 4.867500 -48.574809
RightArm -20.146455 -2.327546 44.578816
RightForeArm 1.478463 -0.000000 4.024848
RightHand 14.926018 -0.000000 -11.619323
RightHandThumb1 -24.326973 -0.000000 -32.862282
LeftShoulder -10.565042 -0.065793 28.302566
LeftArm 20.642163 43.503028 -85.772225
LeftForeArm 26.248546 -0.000000 32.803419
LeftHand -12.037217 0.000000 -23.782092
LeftHandThumb1 -26.253704 0.000000 33.147579
Head -15.562530 -62.333857 25.675160
3681
root -3.991864 33.578084 -1.941499 6.338586 64.783989 -31.560662
RightUpLeg -126.214498 19.689542 -13.521584
RightLeg 86.377297 -0.000000 -0.000000
RightFoot 12.375187 0.557255 21.298963
RightToeBase 23.443345 -0.000000 -0.000000
LeftUpLeg -34.222891 5.720312 9.448079
LeftLeg 5.210985 -0.000000 -0.000000
LeftFoot -7.358576 -9.700766 4.759098
LeftToeBase -1.544301 -0.000000 0.000000
Spine -51.930925 -39.192880 47.373913
RightShoulder -35.324838 4.856038 -48.598407
RightArm -20.085974 -2.279505 44.621232
RightForeArm 1.666113 -0.000000 4.047524
RightHand 14.894199 -0.000000 -11.110782
RightHandThumb1 -24.326973 -0.000000 -32.862282
LeftShoulder -10.536889 -0.155240 28.288939
LeftArm 20.633500 43.593287 -85.754254
LeftForeArm 26.107846 -0.000000 32.686807
LeftHand -12.034598 -0.000000 -23.737286
LeftHandThumb1 -26.253704 0.000000 33.147579
Head -15.974343 -62.305678 26.065180
3682
root -3.986923 33.576379 -1.927264 6.131885 64.946559 -31.750448
RightUpLeg -126.202721 19.645280 -13.541021
RightLeg 86.421150 -0.000000 -0.000000
RightFoot 12.419014 0.564310 21.370802
RightToeBase 23.419241 -0.000000 -0.000000
LeftUpLeg -34.177530 5.740284 9.463052
LeftLeg 5.115807 -0.000000 -0.000000
LeftFoot -7.348875 -9.913256 4.743002
LeftToeBase -1.476975 -0.000000 0.000000
Spine -52.002142 -39.199815 47.390945
RightShoulder -35.315550 4.842672 -48.621036
RightArm -20.108167 -2.311042 44.701167
RightForeArm 1.770914 -0.000000 4.127165
RightHand 14.992052 -0.000000 -11.551498
RightHandThumb1 -24.326973 -0.000000 -32.862282
LeftShoulder -10.500775 -0.160241 28.276799
LeftArm 20.700435 43.614726 -85.702780
LeftForeArm 26.040364 0.000000 32.513415
LeftHand -11.823940 -0.000000 -23.738860
LeftHandThumb1 -26.253704 0.000000 33.147579
Head -16.298861 -62.317686 26.389129
3683
root -3.987058 33.575184 -1.912578 6.000906 65.082876 -31.924563
RightUpLeg -126.260040 19.614688 -13.607641
RightLeg 86.433490 -0.000000 -0.000000
RightFoot 12.470990 0.558292 21.437735
RightToeBase 23.423061 -0.000000 -0.000000
LeftUpLeg -34.207187 5.778048 9.481688
LeftLeg 5.048956 -0.000000 -0.000000
LeftFoot -7.339922 -10.095318 4.770822
LeftToeBase -1.511346 -0.000000 0.000000
Spine -52.121265 -39.176469 47.452869
RightShoulder -35.311560 4.874756 -48.655753
RightArm -20.109300 -2.354994 44.774141
RightForeArm 1.887668 -0.000000 4.165875
RightHand 14.945413 -0.000000 -11.227410
RightHandThumb1 -24.326973 -0.000000 -32.862282
LeftShoulder -10.491984 -0.184112 28.283800
LeftArm 20.657872 43.642020 -85.712033
LeftForeArm 25.950355 -0.000000 32.465281
LeftHand -11.939725 -0.000000 -23.690885
LeftHandThumb1 -26.253704 0.000000 33.147579
Head -16.625395 -62.320442 26.728076
3684
root -3.981727 33.576026 -1.898832 5.758160 65.226112 -32.146797
RightUpLeg -126.237310 19.589356 -13.636350
RightLeg 86.448745 -0.000000 -0.000000
RightFoot 12.504280 0.579703 21.488865
RightToeBase 23.444227 -0.000000 -0.000000
LeftUpLeg -34.168384 5.795328 9.523879
LeftLeg 4.989705 -0.000000 -0.000000
LeftFoot -7.327234 -10.292763 4.762717
LeftToeBase -1.501618 -0.000000 0.000000
Spine -52.195108 -39.198349 47.526092
RightShoulder -35.306313 4.777573 -48.618456
RightArm -19.985896 -2.106928 44.809858
RightForeArm 1.825988 -0.000000 4.186630
RightHand 14.903830 -0.000000 -11.421496
RightHandThumb1 -24.326973 -0.000000 -32.862282
LeftShoulder -10.488338 -0.212656 28.248763
LeftArm 20.670546 43.684975 -85.654650
LeftForeArm 25.747522 -0.000000 32.315625
LeftHand -11.790371 -0.000000 -23.579446
LeftHandThumb1 -26.253704 0.000000 33.147579
Head -16.955997 -62.355571 27.041700
3685
root -3.977514 33.577777 -1.883151 5.487419 65.354263 -32.390677
RightUpLeg -126.207803 19.584612 -13.660304
RightLeg 86.458863 -0.000000 -0.000000
RightFoot 12.523121 0.599409 21.481111
RightToeBase 23.485635 -0.000000 -0.000000
LeftUpLeg -34.125575 5.816510 9.588770
LeftLeg 4.943082 -0.000000 -0.000000
LeftFoot -7.305550 -10.481754 4.731682
LeftToeBase -1.516083 -0.000000 0.000000
Spine -52.231537 -39.218872 47.563239
RightShoulder -35.308908 4.733877 -48.580510
RightArm -19.913660 -1.820091 44.776586
RightForeArm 1.554587 0.000000 4.195517
RightHand 14.867656 0.000000 -11.435824
RightHandThumb1 -24.326973 -0.000000 -32.862282
LeftShoulder -10.489187 -0.219480 28.214674
LeftArm 20.696341 43.688950 -85.625341
LeftForeArm 25.661151 0.000000 32.169432
LeftHand -11.739930 -0.000000 -23.615276
LeftHandThumb1 -26.253704 0.000000 33.147579
Head -17.250265 -62.446185 27.344655
3686
root -3.971692 33.579518 -1.867848 5.250613 65.494835 -32.612161
RightUpLeg -126.194734 19.554744 -13.707227
RightLeg 86.479445 -0.000000 -0.000000
RightFoot 12.542421 0.653608 21.486744
RightToeBase 23.467759 -0.000000 -0.000000
LeftUpLeg -34.104265 5.777515 9.672117
LeftLeg 4.916921 -0.000000 -0.000000
LeftFoot -7.291603 -10.618520 4.665753
LeftToeBase -1.478788 -0.000000 0.000000
Spine -52.293927 -39.233279 47.611977
RightShoulder -35.335838 4.717185 -48.581134
RightArm -19.857815 -1.868170 44.851490
RightForeArm 1.526587 -0.000000 4.169632
RightHand 14.931107 -0.000000 -11.882864
RightHandThumb1 -24.326973 -0.000000 -32.862282
LeftShoulder -10.509971 -0.199667 28.173554
LeftArm 20.755217 43.682914 -85.597216
LeftForeArm 25.646008 -0.000000 32.021094
LeftHand -11.736287 -0.000000 -23.696002
LeftHandThumb1 -26.253704 0.000000 33.147579
Head -17.562936 -62.549036 27.674106
